<mxfile host="65bd71144e">
    <diagram id="Bh2kestvxxZaWz1IH52C" name="Page-1">
        <mxGraphModel dx="1345" dy="613" grid="1" gridSize="10" guides="1" tooltips="1" connect="1" arrows="1" fold="1" page="1" pageScale="1" pageWidth="850" pageHeight="1100" math="0" shadow="0">
            <root>
                <mxCell id="0"/>
                <mxCell id="1" parent="0"/>
                <mxCell id="2" value="VIEW_COURSES" style="ellipse;whiteSpace=wrap;html=1;" vertex="1" parent="1">
                    <mxGeometry x="415" y="20" width="120" height="80" as="geometry"/>
                </mxCell>
                <mxCell id="8" value="" style="edgeStyle=none;html=1;exitX=0.5;exitY=0.5;exitDx=0;exitDy=0;exitPerimeter=0;" edge="1" parent="1" source="3" target="16">
                    <mxGeometry relative="1" as="geometry">
                        <mxPoint x="60" y="250" as="sourcePoint"/>
                        <mxPoint x="80" y="250" as="targetPoint"/>
                        <Array as="points"/>
                    </mxGeometry>
                </mxCell>
                <mxCell id="11" style="edgeStyle=none;html=1;exitX=0.5;exitY=0.5;exitDx=0;exitDy=0;exitPerimeter=0;" edge="1" parent="1" source="3" target="6">
                    <mxGeometry relative="1" as="geometry">
                        <mxPoint x="200.03999999999996" y="140.05999999999995" as="targetPoint"/>
                        <Array as="points">
                            <mxPoint x="130" y="180"/>
                        </Array>
                    </mxGeometry>
                </mxCell>
                <mxCell id="20" style="edgeStyle=none;html=1;exitX=0.5;exitY=0.5;exitDx=0;exitDy=0;exitPerimeter=0;" edge="1" parent="1" source="3" target="12">
                    <mxGeometry relative="1" as="geometry">
                        <Array as="points"/>
                    </mxGeometry>
                </mxCell>
                <mxCell id="ayoU1azT47TDgJXAaOhx-27" style="edgeStyle=none;html=1;exitX=0.5;exitY=0.5;exitDx=0;exitDy=0;exitPerimeter=0;" edge="1" parent="1" source="3">
                    <mxGeometry relative="1" as="geometry">
                        <mxPoint x="40" y="230" as="targetPoint"/>
                    </mxGeometry>
                </mxCell>
                <object label="student" id="3">
                    <mxCell style="shape=umlActor;verticalLabelPosition=bottom;verticalAlign=top;html=1;outlineConnect=0;" vertex="1" parent="1">
                        <mxGeometry x="30" y="200" width="30" height="60" as="geometry"/>
                    </mxCell>
                </object>
                <mxCell id="6" value="REQUEST CATALOG" style="ellipse;whiteSpace=wrap;html=1;" vertex="1" parent="1">
                    <mxGeometry x="130" y="70" width="130" height="90" as="geometry"/>
                </mxCell>
                <mxCell id="12" value="PAY BILLS" style="ellipse;whiteSpace=wrap;html=1;" vertex="1" parent="1">
                    <mxGeometry x="150" y="240" width="120" height="80" as="geometry"/>
                </mxCell>
                <mxCell id="13" value="ACCESS_SYSTEM" style="ellipse;whiteSpace=wrap;html=1;" vertex="1" parent="1">
                    <mxGeometry x="600" y="530" width="120" height="80" as="geometry"/>
                </mxCell>
                <mxCell id="14" value="VIEW_COURSES_INFO" style="ellipse;whiteSpace=wrap;html=1;" vertex="1" parent="1">
                    <mxGeometry x="390" y="140" width="145" height="80" as="geometry"/>
                </mxCell>
                <mxCell id="15" value="VEIW_DEPARTMENT" style="ellipse;whiteSpace=wrap;html=1;" vertex="1" parent="1">
                    <mxGeometry x="430" y="240" width="140" height="80" as="geometry"/>
                </mxCell>
                <mxCell id="ayoU1azT47TDgJXAaOhx-52" style="edgeStyle=none;html=1;exitX=1;exitY=0.5;exitDx=0;exitDy=0;entryX=0.001;entryY=0.588;entryDx=0;entryDy=0;entryPerimeter=0;" edge="1" parent="1" source="16" target="ayoU1azT47TDgJXAaOhx-50">
                    <mxGeometry relative="1" as="geometry"/>
                </mxCell>
                <mxCell id="ayoU1azT47TDgJXAaOhx-53" style="edgeStyle=none;html=1;exitX=1;exitY=0.5;exitDx=0;exitDy=0;entryX=0;entryY=0.375;entryDx=0;entryDy=0;entryPerimeter=0;" edge="1" parent="1" source="16" target="ayoU1azT47TDgJXAaOhx-51">
                    <mxGeometry relative="1" as="geometry">
                        <mxPoint x="480" y="470" as="targetPoint"/>
                    </mxGeometry>
                </mxCell>
                <mxCell id="16" value="REGISTER_COURSES" style="ellipse;whiteSpace=wrap;html=1;" vertex="1" parent="1">
                    <mxGeometry x="160" y="410" width="160" height="80" as="geometry"/>
                </mxCell>
                <mxCell id="17" value="VEIW_REGISTERED&lt;br&gt;STUDENT" style="ellipse;whiteSpace=wrap;html=1;" vertex="1" parent="1">
                    <mxGeometry x="300" y="475" width="145" height="80" as="geometry"/>
                </mxCell>
                <mxCell id="ayoU1azT47TDgJXAaOhx-48" style="edgeStyle=none;html=1;exitX=1;exitY=0.5;exitDx=0;exitDy=0;" edge="1" parent="1" source="18">
                    <mxGeometry relative="1" as="geometry">
                        <mxPoint x="450" y="610" as="targetPoint"/>
                    </mxGeometry>
                </mxCell>
                <mxCell id="ayoU1azT47TDgJXAaOhx-49" style="edgeStyle=none;html=1;exitX=1;exitY=0.5;exitDx=0;exitDy=0;" edge="1" parent="1" source="18" target="13">
                    <mxGeometry relative="1" as="geometry"/>
                </mxCell>
                <mxCell id="18" value="UPLOAD_DETAILS" style="ellipse;whiteSpace=wrap;html=1;" vertex="1" parent="1">
                    <mxGeometry x="305" y="570" width="145" height="80" as="geometry"/>
                </mxCell>
                <mxCell id="ayoU1azT47TDgJXAaOhx-34" value="" style="edgeStyle=none;html=1;entryX=0.958;entryY=0.75;entryDx=0;entryDy=0;entryPerimeter=0;" edge="1" parent="1" source="19" target="2">
                    <mxGeometry relative="1" as="geometry">
                        <mxPoint x="810" y="310" as="sourcePoint"/>
                        <mxPoint x="825" y="430" as="targetPoint"/>
                    </mxGeometry>
                </mxCell>
                <mxCell id="19" value="Actor" style="shape=umlActor;verticalLabelPosition=bottom;verticalAlign=top;html=1;outlineConnect=0;" vertex="1" parent="1">
                    <mxGeometry x="910" y="280" width="30" height="60" as="geometry"/>
                </mxCell>
                <mxCell id="23" value="" style="endArrow=classic;html=1;exitX=0.931;exitY=0.234;exitDx=0;exitDy=0;exitPerimeter=0;entryX=-0.015;entryY=0.61;entryDx=0;entryDy=0;entryPerimeter=0;" edge="1" parent="1" source="6" target="2">
                    <mxGeometry width="50" height="50" relative="1" as="geometry">
                        <mxPoint x="340" y="90" as="sourcePoint"/>
                        <mxPoint x="390" y="40" as="targetPoint"/>
                        <Array as="points"/>
                    </mxGeometry>
                </mxCell>
                <mxCell id="25" value="" style="endArrow=classic;html=1;exitX=1;exitY=1;exitDx=0;exitDy=0;entryX=0;entryY=0.5;entryDx=0;entryDy=0;" edge="1" parent="1" source="6" target="14">
                    <mxGeometry width="50" height="50" relative="1" as="geometry">
                        <mxPoint x="317.64" y="162.82" as="sourcePoint"/>
                        <mxPoint x="440.0000000000001" y="117.1799999999999" as="targetPoint"/>
                        <Array as="points"/>
                    </mxGeometry>
                </mxCell>
                <mxCell id="ayoU1azT47TDgJXAaOhx-26" value="" style="endArrow=classic;html=1;exitX=0.645;exitY=1.02;exitDx=0;exitDy=0;exitPerimeter=0;" edge="1" parent="1" source="6" target="15">
                    <mxGeometry width="50" height="50" relative="1" as="geometry">
                        <mxPoint x="330" y="200" as="sourcePoint"/>
                        <mxPoint x="447.1700000000001" y="167.74" as="targetPoint"/>
                        <Array as="points"/>
                    </mxGeometry>
                </mxCell>
                <mxCell id="ayoU1azT47TDgJXAaOhx-32" value="" style="edgeStyle=none;html=1;entryX=0;entryY=0.5;entryDx=0;entryDy=0;" edge="1" parent="1" source="ayoU1azT47TDgJXAaOhx-28" target="17">
                    <mxGeometry relative="1" as="geometry">
                        <mxPoint x="300" y="540" as="targetPoint"/>
                    </mxGeometry>
                </mxCell>
                <object label="Actor" id="ayoU1azT47TDgJXAaOhx-28">
                    <mxCell style="shape=umlActor;verticalLabelPosition=bottom;verticalAlign=top;html=1;outlineConnect=0;" vertex="1" parent="1">
                        <mxGeometry x="30" y="460" width="30" height="80" as="geometry"/>
                    </mxCell>
                </object>
                <mxCell id="ayoU1azT47TDgJXAaOhx-47" style="edgeStyle=none;html=1;" edge="1" parent="1" source="ayoU1azT47TDgJXAaOhx-36">
                    <mxGeometry relative="1" as="geometry">
                        <mxPoint x="300" y="600" as="targetPoint"/>
                        <Array as="points">
                            <mxPoint x="50" y="500"/>
                        </Array>
                    </mxGeometry>
                </mxCell>
                <mxCell id="ayoU1azT47TDgJXAaOhx-36" value="Lecturer" style="text;html=1;align=center;verticalAlign=middle;resizable=0;points=[];autosize=1;strokeColor=none;fillColor=none;" vertex="1" parent="1">
                    <mxGeometry y="500" width="70" height="30" as="geometry"/>
                </mxCell>
                <mxCell id="ayoU1azT47TDgJXAaOhx-50" value="REGISTER &amp;lt; MAX_UNITS&lt;br&gt;POSSIBLE" style="ellipse;whiteSpace=wrap;html=1;" vertex="1" parent="1">
                    <mxGeometry x="415" y="360" width="150" height="80" as="geometry"/>
                </mxCell>
                <mxCell id="ayoU1azT47TDgJXAaOhx-51" value="REGISTER &amp;gt; MIN_UNITS&lt;br&gt;POSSIBLE" style="ellipse;whiteSpace=wrap;html=1;" vertex="1" parent="1">
                    <mxGeometry x="490" y="450" width="150" height="80" as="geometry"/>
                </mxCell>
                <mxCell id="ayoU1azT47TDgJXAaOhx-54" value="" style="edgeStyle=none;html=1;entryX=0.958;entryY=0.75;entryDx=0;entryDy=0;entryPerimeter=0;exitX=0;exitY=0.3333333333333333;exitDx=0;exitDy=0;exitPerimeter=0;" edge="1" parent="1" source="19">
                    <mxGeometry relative="1" as="geometry">
                        <mxPoint x="900" y="300" as="sourcePoint"/>
                        <mxPoint x="529.96" y="200" as="targetPoint"/>
                    </mxGeometry>
                </mxCell>
                <mxCell id="ayoU1azT47TDgJXAaOhx-55" value="" style="edgeStyle=none;html=1;entryX=1;entryY=0.375;entryDx=0;entryDy=0;entryPerimeter=0;" edge="1" parent="1" target="ayoU1azT47TDgJXAaOhx-56">
                    <mxGeometry relative="1" as="geometry">
                        <mxPoint x="920.04" y="330" as="sourcePoint"/>
                        <mxPoint x="640" y="100" as="targetPoint"/>
                    </mxGeometry>
                </mxCell>
                <mxCell id="ayoU1azT47TDgJXAaOhx-56" value="SENDS&amp;nbsp; INFORMATION TO BILLING&lt;br&gt;SYSTEM" style="ellipse;whiteSpace=wrap;html=1;" vertex="1" parent="1">
                    <mxGeometry x="545" y="300" width="230" height="80" as="geometry"/>
                </mxCell>
                <mxCell id="ayoU1azT47TDgJXAaOhx-57" value="REGISTRATION SYSTEM" style="text;html=1;align=center;verticalAlign=middle;resizable=0;points=[];autosize=1;strokeColor=none;fillColor=none;" vertex="1" parent="1">
                    <mxGeometry x="850" y="325" width="170" height="30" as="geometry"/>
                </mxCell>
                <mxCell id="ayoU1azT47TDgJXAaOhx-58" value="" style="endArrow=none;html=1;" edge="1" parent="1">
                    <mxGeometry width="50" height="50" relative="1" as="geometry">
                        <mxPoint x="920" y="10" as="sourcePoint"/>
                        <mxPoint x="30" y="10" as="targetPoint"/>
                        <Array as="points">
                            <mxPoint x="590" y="10"/>
                        </Array>
                    </mxGeometry>
                </mxCell>
                <mxCell id="ayoU1azT47TDgJXAaOhx-59" value="" style="endArrow=none;html=1;" edge="1" parent="1">
                    <mxGeometry width="50" height="50" relative="1" as="geometry">
                        <mxPoint x="100" y="722.4000244140625" as="sourcePoint"/>
                        <mxPoint x="90" y="10" as="targetPoint"/>
                    </mxGeometry>
                </mxCell>
                <mxCell id="ayoU1azT47TDgJXAaOhx-60" value="" style="endArrow=none;html=1;" edge="1" parent="1">
                    <mxGeometry width="50" height="50" relative="1" as="geometry">
                        <mxPoint x="100" y="710" as="sourcePoint"/>
                        <mxPoint x="850" y="710" as="targetPoint"/>
                    </mxGeometry>
                </mxCell>
                <mxCell id="ayoU1azT47TDgJXAaOhx-61" value="" style="endArrow=none;html=1;" edge="1" parent="1">
                    <mxGeometry width="50" height="50" relative="1" as="geometry">
                        <mxPoint x="830" y="710" as="sourcePoint"/>
                        <mxPoint x="830" as="targetPoint"/>
                        <Array as="points"/>
                    </mxGeometry>
                </mxCell>
                <mxCell id="ayoU1azT47TDgJXAaOhx-62" value="EDIT_COURSES" style="ellipse;whiteSpace=wrap;html=1;" vertex="1" parent="1">
                    <mxGeometry x="235" y="330" width="180" height="80" as="geometry"/>
                </mxCell>
                <mxCell id="ayoU1azT47TDgJXAaOhx-63" value="" style="endArrow=classic;html=1;" edge="1" parent="1" source="3">
                    <mxGeometry relative="1" as="geometry">
                        <mxPoint x="100" y="330" as="sourcePoint"/>
                        <mxPoint x="230" y="360" as="targetPoint"/>
                        <Array as="points">
                            <mxPoint x="190" y="330"/>
                        </Array>
                    </mxGeometry>
                </mxCell>
                <mxCell id="ayoU1azT47TDgJXAaOhx-66" value="SYSTEM" style="text;html=1;align=center;verticalAlign=middle;resizable=0;points=[];autosize=1;strokeColor=none;fillColor=none;" vertex="1" parent="1">
                    <mxGeometry x="680" y="40" width="70" height="30" as="geometry"/>
                </mxCell>
            </root>
        </mxGraphModel>
    </diagram>
    <diagram id="QvHykfD7eqFcX9AOGIO0" name="Page-2">
        <mxGraphModel dx="1345" dy="613" grid="1" gridSize="10" guides="1" tooltips="1" connect="1" arrows="1" fold="1" page="1" pageScale="1" pageWidth="850" pageHeight="1100" math="0" shadow="0">
            <root>
                <mxCell id="0"/>
                <mxCell id="1" parent="0"/>
            </root>
        </mxGraphModel>
    </diagram>
</mxfile>